REM DIRINDEX 1\8,1\2\11,1\3\12,1\3\14,1\5\15,1\5\16,1\6\17,1\6\18,1\4\19,1\4\20,1\4\21,1\4\22,1\7\23,1\7\24,1\7\25,1\2\9\26,1\2\9\27,1\2\10\28,1\2\10\29,1\2\10\30,1\2\10\31,1\2\10\32,1\3\13\33,1\3\13\34,1\3\13\35
REM DIRNAME cjc123,folder01,folder02,folder03,folder04,folder05,folder06,folder07,folder08,folder09,folder10,folder11,folder12,folder13,folder14,folder15,folder16,folder17,folder18,folder19,folder20,folder21,folder22,folder23,folder24,folder25,folder26,folder27,folder28,folder29,folder30,folder31,folder32,folder33,folder34
TITLE ""
FILE "163 163_例文UNIT7_SET5.mp3" MP3
  TRACK 01 AUDIO
    TITLE "22:cjc123_4475"
    INDEX 01 00:00:00
  TRACK 02 AUDIO
    TITLE "0:"
    INDEX 01 00:02:40
  TRACK 03 AUDIO
    TITLE "19:cjc123_4476"
    INDEX 01 00:03:21
  TRACK 04 AUDIO
    TITLE "0:"
    INDEX 01 00:07:37
  TRACK 05 AUDIO
    TITLE "20:cjc123_4477"
    INDEX 01 00:07:68
  TRACK 06 AUDIO
    TITLE "0:"
    INDEX 01 00:11:66
  TRACK 07 AUDIO
    TITLE "21:cjc123_4478"
    INDEX 01 00:12:18
  TRACK 08 AUDIO
    TITLE "0:"
    INDEX 01 00:16:36
  TRACK 09 AUDIO
    TITLE "19:cjc123_4479"
    INDEX 01 00:17:10
  TRACK 10 AUDIO
    TITLE "0:"
    INDEX 01 00:23:12
  TRACK 11 AUDIO
    TITLE "20:cjc123_4480"
    INDEX 01 00:23:42
  TRACK 12 AUDIO
    TITLE "0:"
    INDEX 01 00:30:48
  TRACK 13 AUDIO
    TITLE "21:cjc123_4481"
    INDEX 01 00:31:04
  TRACK 14 AUDIO
    TITLE "0:"
    INDEX 01 00:37:07
  TRACK 15 AUDIO
    TITLE "19:cjc123_4482"
    INDEX 01 00:37:48
  TRACK 16 AUDIO
    TITLE "0:"
    INDEX 01 00:42:27
  TRACK 17 AUDIO
    TITLE "20:cjc123_4483"
    INDEX 01 00:43:01
  TRACK 18 AUDIO
    TITLE "0:"
    INDEX 01 00:47:28
  TRACK 19 AUDIO
    TITLE "21:cjc123_4484"
    INDEX 01 00:47:56
  TRACK 20 AUDIO
    TITLE "0:"
    INDEX 01 00:52:36
  TRACK 21 AUDIO
    TITLE "19:cjc123_4485"
    INDEX 01 00:53:33
  TRACK 22 AUDIO
    TITLE "0:"
    INDEX 01 00:57:72
  TRACK 23 AUDIO
    TITLE "20:cjc123_4486"
    INDEX 01 00:58:36
  TRACK 24 AUDIO
    TITLE "0:"
    INDEX 01 01:02:69
  TRACK 25 AUDIO
    TITLE "21:cjc123_4487"
    INDEX 01 01:03:45
  TRACK 26 AUDIO
    TITLE "0:"
    INDEX 01 01:08:09
  TRACK 27 AUDIO
    TITLE "19:cjc123_4488"
    INDEX 01 01:08:58
  TRACK 28 AUDIO
    TITLE "0:"
    INDEX 01 01:14:51
  TRACK 29 AUDIO
    TITLE "20:cjc123_4489"
    INDEX 01 01:15:25
  TRACK 30 AUDIO
    TITLE "0:"
    INDEX 01 01:21:72
  TRACK 31 AUDIO
    TITLE "21:cjc123_4490"
    INDEX 01 01:22:21
  TRACK 32 AUDIO
    TITLE "0:"
    INDEX 01 01:28:16
  TRACK 33 AUDIO
    TITLE "19:cjc123_4491"
    INDEX 01 01:28:71
  TRACK 34 AUDIO
    TITLE "0:"
    INDEX 01 01:34:16
  TRACK 35 AUDIO
    TITLE "20:cjc123_4492"
    INDEX 01 01:34:50
  TRACK 36 AUDIO
    TITLE "0:"
    INDEX 01 01:40:64
  TRACK 37 AUDIO
    TITLE "21:cjc123_4493"
    INDEX 01 01:41:20
  TRACK 38 AUDIO
    TITLE "0:"
    INDEX 01 01:46:39
  TRACK 39 AUDIO
    TITLE "19:cjc123_4494"
    INDEX 01 01:47:19
  TRACK 40 AUDIO
    TITLE "0:"
    INDEX 01 01:50:72
  TRACK 41 AUDIO
    TITLE "20:cjc123_4495"
    INDEX 01 01:51:42
  TRACK 42 AUDIO
    TITLE "0:"
    INDEX 01 01:55:34
  TRACK 43 AUDIO
    TITLE "21:cjc123_4496"
    INDEX 01 01:55:65
  TRACK 44 AUDIO
    TITLE "0:"
    INDEX 01 01:59:46
  TRACK 45 AUDIO
    TITLE "19:cjc123_4497"
    INDEX 01 02:00:27
  TRACK 46 AUDIO
    TITLE "0:"
    INDEX 01 02:03:55
  TRACK 47 AUDIO
    TITLE "20:cjc123_4498"
    INDEX 01 02:04:25
  TRACK 48 AUDIO
    TITLE "0:"
    INDEX 01 02:08:39
  TRACK 49 AUDIO
    TITLE "21:cjc123_4499"
    INDEX 01 02:08:72
  TRACK 50 AUDIO
    TITLE "0:"
    INDEX 01 02:12:25
  TRACK 51 AUDIO
    TITLE "19:cjc123_4500"
    INDEX 01 02:13:01
  TRACK 52 AUDIO
    TITLE "0:"
    INDEX 01 02:18:51
  TRACK 53 AUDIO
    TITLE "20:cjc123_4501"
    INDEX 01 02:19:09
  TRACK 54 AUDIO
    TITLE "0:"
    INDEX 01 02:24:12
  TRACK 55 AUDIO
    TITLE "21:cjc123_4502"
    INDEX 01 02:24:42
  TRACK 56 AUDIO
    TITLE "0:"
    INDEX 01 02:30:15
  TRACK 57 AUDIO
    TITLE "19:cjc123_4503"
    INDEX 01 02:31:08
  TRACK 58 AUDIO
    TITLE "0:"
    INDEX 01 02:37:42
  TRACK 59 AUDIO
    TITLE "20:cjc123_4504"
    INDEX 01 02:38:22
  TRACK 60 AUDIO
    TITLE "0:"
    INDEX 01 02:45:40
  TRACK 61 AUDIO
    TITLE "21:cjc123_4505"
    INDEX 01 02:45:73
  TRACK 62 AUDIO
    TITLE "0:"
    INDEX 01 02:52:46
  TRACK 63 AUDIO
    TITLE "19:cjc123_4506"
    INDEX 01 02:53:20
  TRACK 64 AUDIO
    TITLE "0:"
    INDEX 01 02:59:52
  TRACK 65 AUDIO
    TITLE "20:cjc123_4507"
    INDEX 01 03:00:24
  TRACK 66 AUDIO
    TITLE "0:"
    INDEX 01 03:08:00
  TRACK 67 AUDIO
    TITLE "21:cjc123_4508"
    INDEX 01 03:08:27
  TRACK 68 AUDIO
    TITLE "0:"
    INDEX 01 03:14:57
  TRACK 69 AUDIO
    TITLE "19:cjc123_4509"
    INDEX 01 03:15:57
  TRACK 70 AUDIO
    TITLE "0:"
    INDEX 01 03:19:72
  TRACK 71 AUDIO
    TITLE "20:cjc123_4510"
    INDEX 01 03:20:34
  TRACK 72 AUDIO
    TITLE "0:"
    INDEX 01 03:25:51
  TRACK 73 AUDIO
    TITLE "21:cjc123_4511"
    INDEX 01 03:26:17
  TRACK 74 AUDIO
    TITLE "0:"
    INDEX 01 03:30:33
  TRACK 75 AUDIO
    TITLE "19:cjc123_4512"
    INDEX 01 03:31:09
  TRACK 76 AUDIO
    TITLE "0:"
    INDEX 01 03:38:17
  TRACK 77 AUDIO
    TITLE "20:cjc123_4513"
    INDEX 01 03:38:60
  TRACK 78 AUDIO
    TITLE "0:"
    INDEX 01 03:47:57
  TRACK 79 AUDIO
    TITLE "21:cjc123_4514"
    INDEX 01 03:48:19
  TRACK 80 AUDIO
    TITLE "0:"
    INDEX 01 03:55:27
  TRACK 81 AUDIO
    TITLE "19:cjc123_4515"
    INDEX 01 03:55:74
  TRACK 82 AUDIO
    TITLE "0:"
    INDEX 01 04:00:40
  TRACK 83 AUDIO
    TITLE "20:cjc123_4516"
    INDEX 01 04:00:73
  TRACK 84 AUDIO
    TITLE "0:"
    INDEX 01 04:05:39
  TRACK 85 AUDIO
    TITLE "21:cjc123_4517"
    INDEX 01 04:05:68
  TRACK 86 AUDIO
    TITLE "0:"
    INDEX 01 04:10:34
  TRACK 87 AUDIO
    TITLE "19:cjc123_4518"
    INDEX 01 04:11:08
  TRACK 88 AUDIO
    TITLE "0:"
    INDEX 01 04:16:37
  TRACK 89 AUDIO
    TITLE "20:cjc123_4519"
    INDEX 01 04:17:01
  TRACK 90 AUDIO
    TITLE "0:"
    INDEX 01 04:22:12
  TRACK 91 AUDIO
    TITLE "21:cjc123_4520"
    INDEX 01 04:22:55
  TRACK 92 AUDIO
    TITLE "0:"
    INDEX 01 04:28:11
